<svg width="32" height="32" viewBox="0 0 32 32" fill="none" xmlns="http://www.w3.org/2000/svg">
<rect width="32" height="32" rx="4.07794" fill="url(#paint0_linear_527_1199)"/>
<path d="M18.9518 14.8818C19.4648 14.7981 19.9548 15.1468 19.9732 15.6662C20.0163 16.8831 19.7609 18.0971 19.2228 19.1999C18.5466 20.5859 17.4573 21.7281 16.1049 22.4692C14.7524 23.2103 13.2035 23.5138 11.6714 23.3379C10.1393 23.162 8.69948 22.5153 7.55021 21.487C6.40094 20.4587 5.5988 19.0993 5.25429 17.5962C4.90978 16.093 5.03985 14.52 5.62659 13.0938C6.21332 11.6676 7.22785 10.4585 8.53041 9.6329C9.56688 8.97598 10.7451 8.58766 11.9593 8.49578C12.4775 8.45656 12.8783 8.9049 12.852 9.42396L12.7849 10.746C12.7586 11.2651 12.3119 11.6539 11.7997 11.7422C11.2506 11.8369 10.7224 12.0392 10.2466 12.3407C9.50414 12.8113 8.92584 13.5006 8.59138 14.3135C8.25693 15.1265 8.18279 16.0231 8.37917 16.88C8.57554 17.7368 9.03278 18.5117 9.68789 19.0979C10.343 19.684 11.1638 20.0526 12.0371 20.1529C12.9104 20.2532 13.7933 20.0802 14.5643 19.6577C15.3352 19.2353 15.9561 18.5842 16.3416 17.7942C16.5886 17.2879 16.7311 16.7405 16.7644 16.1843C16.7954 15.6655 17.1324 15.1786 17.6453 15.0949L18.9518 14.8818Z" fill="white"/>
<path d="M13.0482 17.1182C12.5352 17.2018 12.0452 16.8532 12.0268 16.3338C11.9837 15.1169 12.2391 13.9029 12.7772 12.8001C13.4534 11.4141 14.5427 10.2719 15.8951 9.5308C17.2476 8.78972 18.7965 8.48622 20.3286 8.66213C21.8607 8.83803 23.3005 9.48467 24.4498 10.513C25.5991 11.5413 26.4012 12.9007 26.7457 14.4038C27.0902 15.907 26.9601 17.48 26.3734 18.9062C25.7867 20.3324 24.7722 21.5415 23.4696 22.3671C22.4331 23.024 21.2549 23.4123 20.0407 23.5042C19.5225 23.5434 19.1217 23.0951 19.148 22.576L19.2151 21.254C19.2414 20.7349 19.6881 20.3461 20.2003 20.2578C20.7494 20.1631 21.2776 19.9608 21.7534 19.6593C22.4959 19.1887 23.0742 18.4994 23.4086 17.6865C23.7431 16.8735 23.8172 15.9769 23.6208 15.12C23.4245 14.2632 22.9672 13.4883 22.3121 12.9021C21.657 12.316 20.8362 11.9474 19.9629 11.8471C19.0896 11.7468 18.2067 11.9198 17.4357 12.3423C16.6648 12.7647 16.0439 13.4158 15.6584 14.2058C15.4114 14.7121 15.2689 15.2595 15.2356 15.8157C15.2046 16.3345 14.8676 16.8214 14.3547 16.9051L13.0482 17.1182Z" fill="white"/>
<defs>
<linearGradient id="paint0_linear_527_1199" x1="-8.15589" y1="-10.038" x2="34.8978" y2="37.7994" gradientUnits="userSpaceOnUse">
<stop stop-color="#2E93D8"/>
<stop offset="0.33" stop-color="#57BBFF"/>
<stop offset="0.67" stop-color="#437FA9"/>
<stop offset="1" stop-color="#857DCF"/>
</linearGradient>
</defs>
</svg>
